<svg viewBox="0 0 500 180" width="500" height="180" xmlns="http://www.w3.org/2000/svg"><text x="250" y="22" fill="#1f2328" text-anchor="middle" font-size="14" style="text-transform: capitalize" opacity="0.8">Most used language</text><g transform="translate(10, 37)"><rect x="0" y="0" width="163.8818768833405" height="9" fill="#dea584" mask="url(#stacked-bar)"></rect><rect x="163.8818768833405" y="0" width="123.18415841584158" height="9" fill="#f1e05a" mask="url(#stacked-bar)"></rect><rect x="287.0660352991821" y="0" width="78.47783039173483" height="9" fill="#00ADD8" mask="url(#stacked-bar)"></rect><rect x="365.5438656909169" y="0" width="75.0973740852346" height="9" fill="#3178c6" mask="url(#stacked-bar)"></rect><rect x="440.6412397761515" y="0" width="33.374773999139045" height="9" fill="#41b883" mask="url(#stacked-bar)"></rect><rect x="474.01601377529056" y="0" width="4.355746879035729" height="9" fill="#384d54" mask="url(#stacked-bar)"></rect><rect x="478.37176065432635" y="0" width="1.413344812742144" height="9" fill="#427819" mask="url(#stacked-bar)"></rect><rect x="479.7851054670685" y="0" width="0.21489453293155403" height="9" fill="#89e051" mask="url(#stacked-bar)"></rect><mask id="stacked-bar"><rect width="480" height="9" fill="white" rx="5"></rect></mask></g><g><g class="row" transform="translate(10, 66)"><circle cx="5" cy="5" r="5" fill="#dea584"></circle><text x="18" y="10" fill="#1f2328" font-size="12">Rust</text><text x="190" y="10" fill="#1f2328" font-size="12">34.14%</text></g><g class="row" transform="translate(260, 66)"><circle cx="5" cy="5" r="5" fill="#f1e05a"></circle><text x="18" y="10" fill="#1f2328" font-size="12">JavaScript</text><text x="190" y="10" fill="#1f2328" font-size="12">25.66%</text></g><g class="row" transform="translate(10, 88)"><circle cx="5" cy="5" r="5" fill="#00ADD8"></circle><text x="18" y="10" fill="#1f2328" font-size="12">Go</text><text x="190" y="10" fill="#1f2328" font-size="12">16.35%</text></g><g class="row" transform="translate(260, 88)"><circle cx="5" cy="5" r="5" fill="#3178c6"></circle><text x="18" y="10" fill="#1f2328" font-size="12">TypeScript</text><text x="190" y="10" fill="#1f2328" font-size="12">15.65%</text></g><g class="row" transform="translate(10, 110)"><circle cx="5" cy="5" r="5" fill="#41b883"></circle><text x="18" y="10" fill="#1f2328" font-size="12">Vue</text><text x="190" y="10" fill="#1f2328" font-size="12">06.95%</text></g><g class="row" transform="translate(260, 110)"><circle cx="5" cy="5" r="5" fill="#384d54"></circle><text x="18" y="10" fill="#1f2328" font-size="12">Dockerfile</text><text x="190" y="10" fill="#1f2328" font-size="12">00.91%</text></g><g class="row" transform="translate(10, 132)"><circle cx="5" cy="5" r="5" fill="#427819"></circle><text x="18" y="10" fill="#1f2328" font-size="12">Makefile</text><text x="190" y="10" fill="#1f2328" font-size="12">00.29%</text></g><g class="row" transform="translate(260, 132)"><circle cx="5" cy="5" r="5" fill="#89e051"></circle><text x="18" y="10" fill="#1f2328" font-size="12">Shell</text><text x="190" y="10" fill="#1f2328" font-size="12">00.04%</text></g></g></svg>