<svg viewBox="0 0 500 180" width="500" height="180" xmlns="http://www.w3.org/2000/svg"><text x="250" y="22" fill="#1f2328" text-anchor="middle" font-size="14" style="text-transform: capitalize" opacity="0.8">Most used language</text><g transform="translate(10, 37)"><rect x="0" y="0" width="173.33706572112843" height="9" fill="#dea584" mask="url(#stacked-bar)"></rect><rect x="173.33706572112843" y="0" width="126.74691300426115" height="9" fill="#3178c6" mask="url(#stacked-bar)"></rect><rect x="300.08397872538956" y="0" width="91.92622313458368" height="9" fill="#41b883" mask="url(#stacked-bar)"></rect><rect x="392.0102018599732" y="0" width="47.25202948586358" height="9" fill="#00ADD8" mask="url(#stacked-bar)"></rect><rect x="439.2622313458368" y="0" width="37.13477030263444" height="9" fill="#f1e05a" mask="url(#stacked-bar)"></rect><rect x="476.3970016484713" y="0" width="2.622624490684582" height="9" fill="#384d54" mask="url(#stacked-bar)"></rect><rect x="479.0196261391559" y="0" width="0.8509844172809554" height="9" fill="#427819" mask="url(#stacked-bar)"></rect><rect x="479.8706105564368" y="0" width="0.1293894435631862" height="9" fill="#89e051" mask="url(#stacked-bar)"></rect><mask id="stacked-bar"><rect width="480" height="9" fill="white" rx="5"></rect></mask></g><g><g class="row" transform="translate(10, 66)"><circle cx="5" cy="5" r="5" fill="#dea584"></circle><text x="18" y="10" fill="#1f2328" font-size="12">Rust</text><text x="190" y="10" fill="#1f2328" font-size="12">36.11%</text></g><g class="row" transform="translate(260, 66)"><circle cx="5" cy="5" r="5" fill="#3178c6"></circle><text x="18" y="10" fill="#1f2328" font-size="12">TypeScript</text><text x="190" y="10" fill="#1f2328" font-size="12">26.41%</text></g><g class="row" transform="translate(10, 88)"><circle cx="5" cy="5" r="5" fill="#41b883"></circle><text x="18" y="10" fill="#1f2328" font-size="12">Vue</text><text x="190" y="10" fill="#1f2328" font-size="12">19.15%</text></g><g class="row" transform="translate(260, 88)"><circle cx="5" cy="5" r="5" fill="#00ADD8"></circle><text x="18" y="10" fill="#1f2328" font-size="12">Go</text><text x="190" y="10" fill="#1f2328" font-size="12">09.84%</text></g><g class="row" transform="translate(10, 110)"><circle cx="5" cy="5" r="5" fill="#f1e05a"></circle><text x="18" y="10" fill="#1f2328" font-size="12">JavaScript</text><text x="190" y="10" fill="#1f2328" font-size="12">07.74%</text></g><g class="row" transform="translate(260, 110)"><circle cx="5" cy="5" r="5" fill="#384d54"></circle><text x="18" y="10" fill="#1f2328" font-size="12">Dockerfile</text><text x="190" y="10" fill="#1f2328" font-size="12">00.55%</text></g><g class="row" transform="translate(10, 132)"><circle cx="5" cy="5" r="5" fill="#427819"></circle><text x="18" y="10" fill="#1f2328" font-size="12">Makefile</text><text x="190" y="10" fill="#1f2328" font-size="12">00.18%</text></g><g class="row" transform="translate(260, 132)"><circle cx="5" cy="5" r="5" fill="#89e051"></circle><text x="18" y="10" fill="#1f2328" font-size="12">Shell</text><text x="190" y="10" fill="#1f2328" font-size="12">00.03%</text></g></g></svg>