<svg viewBox="0 0 500 180" width="500" height="180" xmlns="http://www.w3.org/2000/svg"><text x="250" y="22" fill="#1f2328" text-anchor="middle" font-size="14" style="text-transform: capitalize" opacity="0.8">Most used language</text><g transform="translate(10, 37)"><rect x="0" y="0" width="257.03688410109424" height="9" fill="#dea584" mask="url(#stacked-bar)"></rect><rect x="257.03688410109424" y="0" width="86.88373674686358" height="9" fill="#f1e05a" mask="url(#stacked-bar)"></rect><rect x="343.9206208479579" y="0" width="55.35165595890162" height="9" fill="#00ADD8" mask="url(#stacked-bar)"></rect><rect x="399.2722768068595" y="0" width="52.967366618491845" height="9" fill="#3178c6" mask="url(#stacked-bar)"></rect><rect x="452.23964342535135" y="0" width="23.53975637304315" height="9" fill="#41b883" mask="url(#stacked-bar)"></rect><rect x="475.7793997983945" y="0" width="3.0721772185720013" height="9" fill="#384d54" mask="url(#stacked-bar)"></rect><rect x="478.8515770169665" y="0" width="0.996854467506285" height="9" fill="#427819" mask="url(#stacked-bar)"></rect><rect x="479.84843148447277" y="0" width="0.15156851552727138" height="9" fill="#89e051" mask="url(#stacked-bar)"></rect><mask id="stacked-bar"><rect width="480" height="9" fill="white" rx="5"></rect></mask></g><g><g class="row" transform="translate(10, 66)"><circle cx="5" cy="5" r="5" fill="#dea584"></circle><text x="18" y="10" fill="#1f2328" font-size="12">Rust</text><text x="190" y="10" fill="#1f2328" font-size="12">53.55%</text></g><g class="row" transform="translate(260, 66)"><circle cx="5" cy="5" r="5" fill="#f1e05a"></circle><text x="18" y="10" fill="#1f2328" font-size="12">JavaScript</text><text x="190" y="10" fill="#1f2328" font-size="12">18.10%</text></g><g class="row" transform="translate(10, 88)"><circle cx="5" cy="5" r="5" fill="#00ADD8"></circle><text x="18" y="10" fill="#1f2328" font-size="12">Go</text><text x="190" y="10" fill="#1f2328" font-size="12">11.53%</text></g><g class="row" transform="translate(260, 88)"><circle cx="5" cy="5" r="5" fill="#3178c6"></circle><text x="18" y="10" fill="#1f2328" font-size="12">TypeScript</text><text x="190" y="10" fill="#1f2328" font-size="12">11.03%</text></g><g class="row" transform="translate(10, 110)"><circle cx="5" cy="5" r="5" fill="#41b883"></circle><text x="18" y="10" fill="#1f2328" font-size="12">Vue</text><text x="190" y="10" fill="#1f2328" font-size="12">04.90%</text></g><g class="row" transform="translate(260, 110)"><circle cx="5" cy="5" r="5" fill="#384d54"></circle><text x="18" y="10" fill="#1f2328" font-size="12">Dockerfile</text><text x="190" y="10" fill="#1f2328" font-size="12">00.64%</text></g><g class="row" transform="translate(10, 132)"><circle cx="5" cy="5" r="5" fill="#427819"></circle><text x="18" y="10" fill="#1f2328" font-size="12">Makefile</text><text x="190" y="10" fill="#1f2328" font-size="12">00.21%</text></g><g class="row" transform="translate(260, 132)"><circle cx="5" cy="5" r="5" fill="#89e051"></circle><text x="18" y="10" fill="#1f2328" font-size="12">Shell</text><text x="190" y="10" fill="#1f2328" font-size="12">00.03%</text></g></g></svg>