<svg viewBox="0 0 500 180" width="500" height="180" xmlns="http://www.w3.org/2000/svg"><text x="250" y="22" fill="#1f2328" text-anchor="middle" font-size="14" style="text-transform: capitalize" opacity="0.8">Most used language</text><g transform="translate(10, 37)"><rect x="0" y="0" width="246.36156554151998" height="9" fill="#dea584" mask="url(#stacked-bar)"></rect><rect x="246.36156554151998" y="0" width="117.97473597018015" height="9" fill="#00ADD8" mask="url(#stacked-bar)"></rect><rect x="364.3363015117001" y="0" width="54.59515427624767" height="9" fill="#3178c6" mask="url(#stacked-bar)"></rect><rect x="418.93145578794775" y="0" width="50.17187823565956" height="9" fill="#41b883" mask="url(#stacked-bar)"></rect><rect x="469.1033340236073" y="0" width="6.547939531994201" height="9" fill="#384d54" mask="url(#stacked-bar)"></rect><rect x="475.65127355560156" y="0" width="2.1246634914060882" height="9" fill="#427819" mask="url(#stacked-bar)"></rect><rect x="477.77593704700763" y="0" width="1.9010147028370263" height="9" fill="#f1e05a" mask="url(#stacked-bar)"></rect><rect x="479.67695174984465" y="0" width="0.32304825015531163" height="9" fill="#89e051" mask="url(#stacked-bar)"></rect><mask id="stacked-bar"><rect width="480" height="9" fill="white" rx="5"></rect></mask></g><g><g class="row" transform="translate(10, 66)"><circle cx="5" cy="5" r="5" fill="#dea584"></circle><text x="18" y="10" fill="#1f2328" font-size="12">Rust</text><text x="190" y="10" fill="#1f2328" font-size="12">51.33%</text></g><g class="row" transform="translate(260, 66)"><circle cx="5" cy="5" r="5" fill="#00ADD8"></circle><text x="18" y="10" fill="#1f2328" font-size="12">Go</text><text x="190" y="10" fill="#1f2328" font-size="12">24.58%</text></g><g class="row" transform="translate(10, 88)"><circle cx="5" cy="5" r="5" fill="#3178c6"></circle><text x="18" y="10" fill="#1f2328" font-size="12">TypeScript</text><text x="190" y="10" fill="#1f2328" font-size="12">11.37%</text></g><g class="row" transform="translate(260, 88)"><circle cx="5" cy="5" r="5" fill="#41b883"></circle><text x="18" y="10" fill="#1f2328" font-size="12">Vue</text><text x="190" y="10" fill="#1f2328" font-size="12">10.45%</text></g><g class="row" transform="translate(10, 110)"><circle cx="5" cy="5" r="5" fill="#384d54"></circle><text x="18" y="10" fill="#1f2328" font-size="12">Dockerfile</text><text x="190" y="10" fill="#1f2328" font-size="12">01.36%</text></g><g class="row" transform="translate(260, 110)"><circle cx="5" cy="5" r="5" fill="#427819"></circle><text x="18" y="10" fill="#1f2328" font-size="12">Makefile</text><text x="190" y="10" fill="#1f2328" font-size="12">00.44%</text></g><g class="row" transform="translate(10, 132)"><circle cx="5" cy="5" r="5" fill="#f1e05a"></circle><text x="18" y="10" fill="#1f2328" font-size="12">JavaScript</text><text x="190" y="10" fill="#1f2328" font-size="12">00.40%</text></g><g class="row" transform="translate(260, 132)"><circle cx="5" cy="5" r="5" fill="#89e051"></circle><text x="18" y="10" fill="#1f2328" font-size="12">Shell</text><text x="190" y="10" fill="#1f2328" font-size="12">00.07%</text></g></g></svg>