<svg viewBox="0 0 500 180" width="500" height="180" xmlns="http://www.w3.org/2000/svg"><text x="250" y="22" fill="#1f2328" text-anchor="middle" font-size="14" style="text-transform: capitalize" opacity="0.8">Most used language</text><g transform="translate(10, 37)"><rect x="0" y="0" width="200.20205460014756" height="9" fill="#dea584" mask="url(#stacked-bar)"></rect><rect x="200.20205460014756" y="0" width="115.64333957659345" height="9" fill="#3178c6" mask="url(#stacked-bar)"></rect><rect x="315.845394176741" y="0" width="83.87309154889608" height="9" fill="#41b883" mask="url(#stacked-bar)"></rect><rect x="399.7184857256371" y="0" width="43.11254895283501" height="9" fill="#00ADD8" mask="url(#stacked-bar)"></rect><rect x="442.8310346784721" y="0" width="33.881605085419146" height="9" fill="#f1e05a" mask="url(#stacked-bar)"></rect><rect x="476.7126397638912" y="0" width="2.3928713320846815" height="9" fill="#384d54" mask="url(#stacked-bar)"></rect><rect x="479.1055110959759" y="0" width="0.7764345309041375" height="9" fill="#427819" mask="url(#stacked-bar)"></rect><rect x="479.88194562688005" y="0" width="0.11805437311992736" height="9" fill="#89e051" mask="url(#stacked-bar)"></rect><mask id="stacked-bar"><rect width="480" height="9" fill="white" rx="5"></rect></mask></g><g><g class="row" transform="translate(10, 66)"><circle cx="5" cy="5" r="5" fill="#dea584"></circle><text x="18" y="10" fill="#1f2328" font-size="12">Rust</text><text x="190" y="10" fill="#1f2328" font-size="12">41.71%</text></g><g class="row" transform="translate(260, 66)"><circle cx="5" cy="5" r="5" fill="#3178c6"></circle><text x="18" y="10" fill="#1f2328" font-size="12">TypeScript</text><text x="190" y="10" fill="#1f2328" font-size="12">24.09%</text></g><g class="row" transform="translate(10, 88)"><circle cx="5" cy="5" r="5" fill="#41b883"></circle><text x="18" y="10" fill="#1f2328" font-size="12">Vue</text><text x="190" y="10" fill="#1f2328" font-size="12">17.47%</text></g><g class="row" transform="translate(260, 88)"><circle cx="5" cy="5" r="5" fill="#00ADD8"></circle><text x="18" y="10" fill="#1f2328" font-size="12">Go</text><text x="190" y="10" fill="#1f2328" font-size="12">08.98%</text></g><g class="row" transform="translate(10, 110)"><circle cx="5" cy="5" r="5" fill="#f1e05a"></circle><text x="18" y="10" fill="#1f2328" font-size="12">JavaScript</text><text x="190" y="10" fill="#1f2328" font-size="12">07.06%</text></g><g class="row" transform="translate(260, 110)"><circle cx="5" cy="5" r="5" fill="#384d54"></circle><text x="18" y="10" fill="#1f2328" font-size="12">Dockerfile</text><text x="190" y="10" fill="#1f2328" font-size="12">00.50%</text></g><g class="row" transform="translate(10, 132)"><circle cx="5" cy="5" r="5" fill="#427819"></circle><text x="18" y="10" fill="#1f2328" font-size="12">Makefile</text><text x="190" y="10" fill="#1f2328" font-size="12">00.16%</text></g><g class="row" transform="translate(260, 132)"><circle cx="5" cy="5" r="5" fill="#89e051"></circle><text x="18" y="10" fill="#1f2328" font-size="12">Shell</text><text x="190" y="10" fill="#1f2328" font-size="12">00.02%</text></g></g></svg>